<?xml version="1.0" standalone="no"?>
<!DOCTYPE svg PUBLIC "-//W3C//DTD SVG 20010904//EN"
 "http://www.w3.org/TR/2001/REC-SVG-20010904/DTD/svg10.dtd">
<svg version="1.0" xmlns="http://www.w3.org/2000/svg"
 width="512.000000pt" height="512.000000pt" viewBox="0 0 512.000000 512.000000"
 preserveAspectRatio="xMidYMid meet">

<g transform="translate(0.000000,512.000000) scale(0.100000,-0.100000)"
fill="#4CAF50" stroke="none">
<path d="M1015 4258 c-3 -7 -4 -776 -3 -1708 l3 -1695 163 -3 162 -2 0 80 0
80 160 0 160 0 0 80 0 80 163 2 162 3 3 83 3 82 159 0 160 0 0 80 0 80 163 2
162 3 5 80 5 80 158 3 157 3 0 79 0 80 160 0 160 0 0 80 0 80 160 0 160 0 0
80 0 80 173 2 172 3 3 77 3 77 77 3 77 3 0 245 0 245 -77 3 -77 3 -3 77 -3 77
-162 3 -163 2 0 80 0 80 -160 0 -160 0 0 80 0 80 -165 0 -165 0 0 80 0 80
-160 0 -159 0 -3 83 -3 82 -162 3 -163 2 0 80 0 80 -160 0 -160 0 0 80 0 80
-165 0 -164 0 -3 83 -3 82 -157 3 -157 3 -3 77 -3 77 -163 3 c-124 2 -164 0
-167 -10z m485 -398 l0 -80 160 0 159 0 3 -82 3 -83 163 -3 162 -2 0 -80 0
-80 160 0 160 0 0 -80 0 -80 165 0 165 0 0 -85 0 -85 160 0 160 0 0 -80 0 -80
160 0 160 0 0 -80 0 -80 160 0 160 0 0 -80 0 -80 90 0 90 0 0 -80 0 -80 -80 0
-80 0 0 -80 0 -80 -160 0 -160 0 0 -80 0 -80 -167 -2 -168 -3 -3 -77 -3 -77
-157 -3 -157 -3 -3 -82 -3 -83 -159 0 -160 0 0 -80 0 -80 -160 0 -160 0 0 -80
0 -80 -167 -2 -168 -3 -3 -82 -3 -83 -159 0 -160 0 0 -80 0 -80 -155 0 -155 0
0 1380 0 1380 155 0 155 0 0 -80z"/>
</g>
</svg>
