<?xml version="1.0" standalone="no"?>
<!DOCTYPE svg PUBLIC "-//W3C//DTD SVG 20010904//EN"
 "http://www.w3.org/TR/2001/REC-SVG-20010904/DTD/svg10.dtd">
<svg version="1.0" xmlns="http://www.w3.org/2000/svg"
 width="512.000000pt" height="512.000000pt" viewBox="0 0 512.000000 512.000000"
 preserveAspectRatio="xMidYMid meet">

<g transform="translate(0.000000,512.000000) scale(0.100000,-0.100000)"
fill="#4CAF50" stroke="none">
<path d="M2780 4567 l0 -164 257 -6 c141 -4 442 -7 670 -7 l413 0 0 -165 0
-165 165 0 165 0 0 -665 0 -665 -165 0 -165 0 0 -165 0 -165 -167 -2 -168 -3
-3 -167 -2 -168 335 0 335 0 0 -170 0 -170 165 0 165 0 0 -330 0 -330 -555 0
-555 0 0 -170 0 -170 725 0 725 0 0 505 0 505 -165 0 -165 0 0 165 0 165 -170
0 -170 0 0 335 0 335 170 0 170 0 0 665 0 665 -170 0 -170 0 0 170 0 170 -165
0 -165 0 0 165 0 165 -670 0 -670 0 0 -163z"/>
<path d="M1000 4230 l0 -170 -165 0 -165 0 0 -165 0 -165 -170 0 -170 0 2
-667 3 -668 168 -3 167 -2 0 -330 0 -330 -167 -2 -168 -3 -3 -167 -2 -168
-165 0 -165 0 0 -500 0 -500 1670 0 1670 0 0 500 0 500 -165 0 -165 0 -2 167
-3 168 -167 3 -168 2 0 330 0 330 168 2 167 3 3 668 2 667 -170 0 -170 0 0
165 0 165 -165 0 -165 0 0 170 0 170 -670 0 -670 0 0 -170z m1340 -335 l0
-165 165 0 165 0 0 -665 0 -665 -165 0 -165 0 0 -170 0 -170 -170 0 -170 0 0
-170 0 -170 335 0 335 0 0 -165 0 -165 165 0 165 0 0 -330 0 -330 -1330 0
-1330 0 0 83 c0 45 -3 193 -7 330 l-6 247 171 0 172 0 0 171 0 171 333 -3 332
-4 3 168 2 167 -170 0 -170 0 0 170 0 170 -165 0 -165 0 0 665 0 665 165 0
165 0 0 165 0 165 670 0 670 0 0 -165z"/>
</g>
</svg>
